HIERARCHY
ROOT Hips
{
	OFFSET 0.000000 0.000000 0.000000
	CHANNELS 6 Xposition Yposition Zposition Zrotation Yrotation Xrotation 
	JOINT LHipJoint
	{
		OFFSET 0.000000 0.000000 0.000000
		CHANNELS 3 Zrotation Yrotation Xrotation
		JOINT LeftUpLeg
		{
			OFFSET 1.363060 -1.794630 0.839290
			CHANNELS 3 Zrotation Yrotation Xrotation
			JOINT LeftLeg
			{
				OFFSET 2.448110 -6.726130 0.000000
				CHANNELS 3 Zrotation Yrotation Xrotation
				JOINT LeftFoot
				{
					OFFSET 2.562200 -7.039590 0.000000
					CHANNELS 3 Zrotation Yrotation Xrotation
					JOINT LeftToeBase
					{
						OFFSET 0.157640 -0.433110 2.322550
						CHANNELS 3 Zrotation Yrotation Xrotation
						End Site
						{
							OFFSET 0.000000 0.000000 0.000000
						}
					}
				}
			}
		}
	}
	JOINT RHipJoint
	{
		OFFSET 0.000000 0.000000 0.000000
		CHANNELS 3 Zrotation Yrotation Xrotation
		JOINT RightUpLeg
		{
			OFFSET -1.305520 -1.794630 0.839290
			CHANNELS 3 Zrotation Yrotation Xrotation
			JOINT RightLeg
			{
				OFFSET -2.542530 -6.985550 0.000000
				CHANNELS 3 Zrotation Yrotation Xrotation
				JOINT RightFoot
				{
					OFFSET -2.568260 -7.056230 0.000000
					CHANNELS 3 Zrotation Yrotation Xrotation
					JOINT RightToeBase
					{
						OFFSET -0.164730 -0.452590 2.363150
						CHANNELS 3 Zrotation Yrotation Xrotation
						End Site
						{
							OFFSET 0.000000 0.000000 0.000000
						}
					}
				}
			}
		}
	}
	JOINT LowerBack
	{
		OFFSET 0.000000 0.000000 0.000000
		CHANNELS 3 Zrotation Yrotation Xrotation
		JOINT Spine
		{
			OFFSET 0.028270 2.035590 -0.193380
			CHANNELS 3 Zrotation Yrotation Xrotation
			JOINT Spine1
			{
				OFFSET 0.056720 2.048850 -0.042750
				CHANNELS 3 Zrotation Yrotation Xrotation
				JOINT Neck
				{
					OFFSET 0.000000 0.000000 0.000000
					CHANNELS 3 Zrotation Yrotation Xrotation
					JOINT Neck1
					{
						OFFSET -0.054170 1.746240 0.172020
						CHANNELS 3 Zrotation Yrotation Xrotation
						JOINT Head
						{
							OFFSET 0.104070 1.761360 -0.123970
							CHANNELS 3 Zrotation Yrotation Xrotation
							End Site
							{
								OFFSET 0.000000 0.000000 0.000000
							}
						}
					}
				}
				JOINT LeftShoulder
				{
					OFFSET 0.000000 0.000000 0.000000
					CHANNELS 3 Zrotation Yrotation Xrotation
					JOINT LeftArm
					{
						OFFSET 3.362410 1.200890 -0.311210
						CHANNELS 3 Zrotation Yrotation Xrotation
						JOINT LeftForeArm
						{
							OFFSET 4.983000 -0.000000 -0.000000
							CHANNELS 3 Zrotation Yrotation Xrotation
							JOINT LeftHand
							{
								OFFSET 3.483560 -0.000000 -0.000000
								CHANNELS 3 Zrotation Yrotation Xrotation
								JOINT LeftFingerBase
								{
									OFFSET 0.000000 0.000000 0.000000
									CHANNELS 3 Zrotation Yrotation Xrotation
									JOINT LeftHandIndex1
									{
										OFFSET 0.715260 -0.000000 -0.000000
										CHANNELS 3 Zrotation Yrotation Xrotation
										End Site
										{
											OFFSET 0.000000 0.000000 0.000000
										}
									}
								}
								JOINT LThumb
								{
									OFFSET 0.000000 0.000000 0.000000
									CHANNELS 3 Zrotation Yrotation Xrotation
									End Site
									{
										OFFSET 0.000000 0.000000 0.000000
									}
								}
							}
						}
					}
				}
				JOINT RightShoulder
				{
					OFFSET 0.000000 0.000000 0.000000
					CHANNELS 3 Zrotation Yrotation Xrotation
					JOINT RightArm
					{
						OFFSET -3.136600 1.374050 -0.404650
						CHANNELS 3 Zrotation Yrotation Xrotation
						JOINT RightForeArm
						{
							OFFSET -5.241900 -0.000000 -0.000000
							CHANNELS 3 Zrotation Yrotation Xrotation
							JOINT RightHand
							{
								OFFSET -3.444170 -0.000000 -0.000000
								CHANNELS 3 Zrotation Yrotation Xrotation
								JOINT RightFingerBase
								{
									OFFSET 0.000000 0.000000 0.000000
									CHANNELS 3 Zrotation Yrotation Xrotation
									JOINT RightHandIndex1
									{
										OFFSET -0.622530 -0.000000 -0.000000
										CHANNELS 3 Zrotation Yrotation Xrotation
										End Site
										{
											OFFSET 0.000000 0.000000 0.000000
										}
									}
								}
								JOINT RThumb
								{
									OFFSET 0.000000 0.000000 0.000000
									CHANNELS 3 Zrotation Yrotation Xrotation
									End Site
									{
										OFFSET 0.000000 0.000000 0.000000
									}
								}
							}
						}
					}
				}
			}
		}
	}
}
MOTION
Frames: 4
Frame Time: 0.008333
0.394637 17.478279 -15.315075 -4.375261 -6.215771 30.167018 3.238670 -1.720913 -1.722054 -24.547775 -6.826516 -49.781511 0.432013 13.602005 33.423507 -1.195471 17.149437 -36.275733 1.051400 6.520200 18.301600 -3.614173 -0.223686 0.050672 33.311737 4.418936 -17.717788 -3.564267 -12.691832 33.203283 4.465100 -29.584953 25.717747 -1.283200 -7.178500 20.245300 -3.264903 2.788694 -15.397584 0.909314 3.711940 -5.650156 2.143686 2.155290 3.187523 -0.281005 -3.710884 -13.577205 7.198349 -5.039906 21.976523 1.085500 -0.985400 17.137800 -9.011928 -6.845122 3.173134 -67.790777 20.464151 29.499392 37.226175 -43.827116 -14.831478 -0.850123 -1.091608 -23.528185 -9.793878 12.593562 -1.991000 -7.125000 0.000000 0.000000 -31.229100 41.062900 3.415800 8.823654 9.841849 2.189068 76.793305 -19.439487 27.110601 -12.011366 15.380614 -1.482582 -1.037411 0.977317 -24.430458 3.013799 9.893548 0.530600 7.125000 0.000000 0.000000 21.594100 -21.539700 13.098600 
0.398047 17.476894 -15.286621 -4.052037 -5.831760 29.959742 3.193887 -1.706982 -1.704102 -25.007471 -6.646830 -49.492178 0.404574 13.539654 33.306983 -1.293946 17.328595 -36.123299 0.995700 6.350400 17.804400 -3.563693 -0.245712 0.047486 33.137815 3.888207 -17.509153 -3.551579 -12.632699 33.070814 4.409134 -29.552618 25.957281 -1.159900 -6.837200 19.234000 -3.294739 2.588511 -15.259331 0.919599 3.460771 -5.644239 2.027906 2.033940 3.137730 -0.039866 -3.679517 -13.344221 7.088637 -5.060237 21.896983 0.937600 -0.965300 16.948900 -9.025120 -6.804289 3.195622 -67.270302 20.951892 30.333846 37.758665 -44.264906 -15.320602 -1.011900 -1.130005 -24.005476 -11.208274 13.514159 -2.436700 -7.125000 0.000000 0.000000 -32.610100 41.709900 3.010200 8.847155 9.804996 2.195220 76.674345 -19.567135 27.061738 -11.974164 15.414843 -1.499087 -0.879559 1.147958 -23.772981 5.001188 9.247123 0.730700 7.125000 0.000000 0.000000 22.916000 -22.200900 13.661600 
0.396982 17.475402 -15.274578 -3.945439 -5.751308 29.946572 3.165608 -1.706135 -1.690130 -25.278617 -6.362410 -49.564017 0.393109 13.506078 33.241837 -1.488836 17.731917 -35.888219 0.884600 5.995500 16.771400 -3.524195 -0.253756 0.063155 33.059232 3.826120 -17.472176 -3.611658 -12.658445 32.991084 4.266066 -30.318692 27.155285 -1.737300 -8.296100 23.617100 -3.308326 2.439430 -14.832904 0.974278 3.232210 -5.713251 2.125063 1.939106 2.788116 -0.079355 -3.586664 -13.540725 6.998643 -4.920039 21.934857 0.880200 -0.916200 17.120300 -9.004281 -6.860419 3.173028 -67.201253 21.280512 30.635172 37.927395 -44.397738 -15.518901 -1.158912 -1.196697 -24.078612 -12.783664 13.864523 -2.867300 -7.125000 0.000000 0.000000 -33.892400 41.874900 3.004200 8.867078 9.854929 2.198267 76.264212 -19.524457 27.367709 -11.751574 15.189534 -1.492795 -0.838831 1.303429 -22.912818 6.426602 9.683802 0.952700 7.125000 0.000000 0.000000 23.762800 -21.889300 14.453200 
0.394531 17.475828 -15.259551 -3.774243 -5.898126 30.071680 3.175271 -1.693863 -1.657348 -25.621833 -6.204716 -49.762923 0.397089 13.496686 33.224112 -1.589487 17.808025 -35.564122 0.876500 5.968600 16.693200 -3.491482 -0.254316 0.100185 32.785746 4.081249 -17.504738 -3.597810 -12.642168 32.906078 4.235538 -30.365897 27.325078 -1.760300 -8.347800 23.775400 -3.377581 2.540913 -14.537164 0.899134 3.386250 -5.856147 1.872302 2.033338 2.099026 -0.010174 -3.727393 -13.375550 6.998100 -5.148879 21.967215 0.887300 -0.991800 17.211100 -9.031344 -6.927145 3.164456 -66.454244 21.773010 31.742734 37.806597 -44.315589 -15.508947 -1.297585 -1.283117 -23.898884 -14.512814 13.944773 -3.309900 -7.125000 0.000000 0.000000 -35.176000 41.814700 3.217400 8.811838 9.963963 2.146647 76.568303 -19.979966 27.167648 -11.463945 14.896731 -1.488325 -0.878078 1.451416 -21.696199 7.411519 10.923113 1.241800 7.125000 0.000000 0.000000 24.231800 -20.867400 15.427300 
